<svg xmlns="http://www.w3.org/2000/svg" xmlns:xlink="http://www.w3.org/1999/xlink" width="128" zoomAndPan="magnify" viewBox="0 0 96 95.999999" height="128" preserveAspectRatio="xMidYMid meet" version="1.0"><defs><clipPath id="761be64973"><path d="M 5.148438 27 L 46 27 L 46 79 L 5.148438 79 Z M 5.148438 27 " clip-rule="nonzero"/></clipPath><clipPath id="bb43a38cf2"><path d="M 5.148438 0 L 90.648438 0 L 90.648438 96 L 5.148438 96 Z M 5.148438 0 " clip-rule="nonzero"/></clipPath></defs><path fill="#2d374b" d="M 58.691406 43.988281 L 65.722656 32.023438 L 84.683594 61.621094 L 84.691406 67.300781 L 84.628906 28.214844 C 84.605469 27.734375 84.476562 27.289062 84.234375 26.875 C 83.996094 26.460938 83.675781 26.125 83.269531 25.867188 L 49.136719 6.191406 C 48.726562 5.996094 48.289062 5.898438 47.832031 5.898438 C 47.375 5.902344 46.941406 6.003906 46.53125 6.203125 C 46.425781 6.257812 46.324219 6.316406 46.222656 6.378906 L 46.105469 6.457031 L 12.972656 25.699219 L 12.84375 25.757812 C 12.671875 25.835938 12.507812 25.933594 12.355469 26.042969 C 11.710938 26.507812 11.316406 27.128906 11.175781 27.910156 C 11.152344 28.027344 11.140625 28.140625 11.132812 28.257812 L 11.183594 60.109375 L 28.84375 32.675781 C 31.066406 29.035156 35.910156 27.863281 40.40625 27.929688 L 45.683594 28.066406 L 14.585938 78.050781 L 18.253906 80.167969 L 49.722656 28.113281 L 63.632812 28.066406 L 32.246094 81.429688 L 45.328125 88.972656 L 46.890625 89.875 C 47.585938 90.152344 48.289062 90.167969 48.996094 89.917969 L 83.609375 69.8125 L 76.988281 73.65625 Z M 61.375 82.726562 L 48.164062 61.945312 L 56.226562 48.226562 L 73.578125 75.640625 Z M 61.375 82.726562 " fill-opacity="1" fill-rule="nonzero"/><path fill="#28a0f0" d="M 48.164062 61.945312 L 61.375 82.726562 L 73.578125 75.636719 L 56.226562 48.226562 Z M 48.164062 61.945312 " fill-opacity="1" fill-rule="nonzero"/><path fill="#28a0f0" d="M 84.695312 67.300781 L 84.683594 61.621094 L 65.726562 32.023438 L 58.6875 43.984375 L 76.988281 73.65625 L 83.609375 69.8125 C 84.289062 69.257812 84.652344 68.546875 84.695312 67.671875 Z M 84.695312 67.300781 " fill-opacity="1" fill-rule="nonzero"/><g clip-path="url(#761be64973)"><path fill="#ffffff" d="M 5.246094 72.65625 L 14.589844 78.054688 L 45.6875 28.070312 L 40.410156 27.933594 C 35.914062 27.867188 31.070312 29.039062 28.847656 32.679688 L 11.1875 60.113281 L 5.25 69.261719 L 5.25 72.660156 Z M 5.246094 72.65625 " fill-opacity="1" fill-rule="nonzero"/></g><path fill="#ffffff" d="M 63.636719 28.066406 L 49.726562 28.117188 L 18.253906 80.171875 L 29.253906 86.519531 L 32.246094 81.433594 Z M 63.636719 28.066406 " fill-opacity="1" fill-rule="nonzero"/><g clip-path="url(#bb43a38cf2)"><path fill="#96bedc" d="M 90.550781 27.996094 C 90.519531 27.277344 90.402344 26.570312 90.199219 25.878906 C 89.996094 25.191406 89.714844 24.535156 89.351562 23.910156 C 88.992188 23.289062 88.558594 22.722656 88.058594 22.203125 C 87.558594 21.6875 87.003906 21.238281 86.394531 20.855469 L 51.8125 0.925781 C 50.5625 0.308594 49.242188 0 47.847656 0 C 46.453125 0 45.128906 0.308594 43.878906 0.925781 C 43.589844 1.070312 10.25 20.453125 10.25 20.453125 C 9.789062 20.675781 9.347656 20.9375 8.925781 21.238281 C 7.832031 22.019531 6.960938 23 6.3125 24.183594 C 5.664062 25.367188 5.308594 26.632812 5.242188 27.980469 L 5.242188 69.257812 L 11.179688 60.109375 L 11.132812 28.261719 C 11.164062 27.816406 11.285156 27.402344 11.496094 27.015625 C 11.710938 26.628906 11.996094 26.304688 12.355469 26.046875 C 12.511719 25.933594 46.421875 6.261719 46.53125 6.207031 C 46.941406 6.003906 47.375 5.902344 47.832031 5.902344 C 48.289062 5.898438 48.726562 5.996094 49.136719 6.195312 L 83.269531 25.875 C 83.675781 26.128906 83.996094 26.464844 84.234375 26.878906 C 84.476562 27.292969 84.605469 27.738281 84.628906 28.21875 L 84.628906 67.675781 C 84.613281 68.542969 84.273438 69.257812 83.609375 69.816406 L 76.988281 73.660156 L 73.574219 75.644531 L 61.371094 82.730469 L 48.996094 89.921875 C 48.285156 90.171875 47.585938 90.160156 46.886719 89.878906 L 32.246094 81.4375 L 29.253906 86.523438 L 42.414062 94.117188 C 42.847656 94.363281 43.234375 94.585938 43.554688 94.765625 C 44.046875 95.039062 44.382812 95.226562 44.5 95.285156 C 45.613281 95.773438 46.777344 96.011719 47.996094 96.003906 C 49.105469 96.003906 50.179688 95.804688 51.214844 95.398438 L 87.164062 74.53125 C 88.191406 73.730469 89 72.75 89.59375 71.589844 C 90.183594 70.429688 90.503906 69.195312 90.550781 67.894531 Z M 90.550781 27.996094 " fill-opacity="1" fill-rule="nonzero"/></g></svg>